HIERARCHY
ROOT HipCenter
{
    OFFSET 0.0 0.0 -0.0
    CHANNELS 6 Xposition Yposition Zposition Zrotation Xrotation Yrotation
    JOINT Spine
    {
        OFFSET 0.0 12.24189567565918 0.0
        CHANNELS 3 Zrotation Xrotation Yrotation
        JOINT ShoulderCenter
        {
            OFFSET 0.0 34.96759796142578 0.0
            CHANNELS 3 Zrotation Xrotation Yrotation
            JOINT LeftShoulder
            {
                OFFSET 18.57907485961914 0.0 0.0
                CHANNELS 3 Zrotation Xrotation Yrotation
                JOINT LeftElbow
                {
                    OFFSET 29.718101501464844 0.0 0.0
                    CHANNELS 3 Zrotation Xrotation Yrotation
                    JOINT LeftWrist
                    {
                        OFFSET 30.15770149230957 0.0 0.0
                        CHANNELS 3 Zrotation Xrotation Yrotation
                        JOINT LeftHand
                        {
                            OFFSET 4.0852508544921875 0.0 0.0
                            CHANNELS 3 Zrotation Xrotation Yrotation
                            End Site
                            {
                                OFFSET 1.6341001987457275 0.0 0.0
                            }
                        }
                    }
                }
            }
            JOINT RightShoulder
            {
                OFFSET -18.57907485961914 0.0 0.0
                CHANNELS 3 Zrotation Xrotation Yrotation
                JOINT RightElbow
                {
                    OFFSET -29.718101501464844 0.0 0.0
                    CHANNELS 3 Zrotation Xrotation Yrotation
                    JOINT RightWrist
                    {
                        OFFSET -30.15770149230957 0.0 0.0
                        CHANNELS 3 Zrotation Xrotation Yrotation
                        JOINT RightHand
                        {
                            OFFSET -4.0852508544921875 0.0 0.0
                            CHANNELS 3 Zrotation Xrotation Yrotation
                            End Site
                            {
                                OFFSET -1.6341001987457275 0.0 0.0
                            }
                        }
                    }
                }
            }
            End Site
            {
                OFFSET 0.0 13.987040519714355 0.0
            }
        }
    }
    JOINT LeftHip
    {
        OFFSET 15.674403190612793 0.0 0.0
        CHANNELS 3 Zrotation Xrotation Yrotation
        JOINT LeftKnee
        {
            OFFSET 0.0 -41.610260009765625 0.0
            CHANNELS 3 Zrotation Xrotation Yrotation
            JOINT LeftAnkle
            {
                OFFSET 0.0 -41.75247573852539 0.0
                CHANNELS 3 Zrotation Xrotation Yrotation
                JOINT LeftFoot
                {
                    OFFSET 0.0 -9.873124122619629 0.0
                    CHANNELS 3 Zrotation Xrotation Yrotation
                    End Site
                    {
                        OFFSET 0.0 0.0 3.949249267578125
                    }
                }
            }
        }
    }
    JOINT RightHip
    {
        OFFSET -15.674403190612793 0.0 0.0
        CHANNELS 3 Zrotation Xrotation Yrotation
        JOINT RightKnee
        {
            OFFSET 0.0 -41.610260009765625 0.0
            CHANNELS 3 Zrotation Xrotation Yrotation
            JOINT RightAnkle
            {
                OFFSET 0.0 -41.75247573852539 0.0
                CHANNELS 3 Zrotation Xrotation Yrotation
                JOINT RightFoot
                {
                    OFFSET 0.0 -9.873124122619629 0.0
                    CHANNELS 3 Zrotation Xrotation Yrotation
                    End Site
                    {
                        OFFSET 0.0 0.0 3.949249267578125
                    }
                }
            }
        }
    }
}
MOTION
Frames: 4
Frame Time: 0.03333333333333333
-12.199999809265137 -0.10000000149011612 -8.0 -3.7517296531086646 -0.9371780221125654 81.94765934724954 3.7474250873016444 -2.264763236148165 0.12237938944832709 -1.0473493328897703e-07 1.2485085140827997e-07 -1.328437184336182 98.74308251003015 29.390915234737616 174.80419235351832 -2.6823249034237955e-06 4.291407029480464e-06 54.244266493327146 179.99999946435204 -5.985385716732681 -120.7442337901429 0.0 6.361109362927035e-15 0.0 -100.59340422770182 5.323039920377475 -168.865038122418 1.411304420741312e-07 4.44002244850715e-06 -32.10862317833971 9.42918994162327e-07 -27.446478421975637 -25.8885187464841 9.93923337957349e-16 -2.758691436281349e-32 -3.1805546814635168e-15 0.9930393578129657 -11.115822302346617 -16.73956636544062 1.994254849143537 22.014449582981197 -21.951673862072067 79.98798194510414 -55.246258233107746 128.04998538003247 -1.590277340731758e-15 -2.2069531490250793e-32 1.590277340731758e-15 7.0131827750078894 -2.0780921691254597 22.276740806798475 0.06641954857407696 12.731465653317393 8.743742504827624 -86.34622383050299 -38.82676718156081 -132.96199214938054 -6.3611093629270335e-15 -1.7655625192200634e-31 3.1805546814635168e-15
-12.300000190734863 -0.10000000149011612 -7.800000190734863 -3.751729784324017 -0.4686224945741548 82.52684619916282 3.2665468303073832 -2.3596149445550902 0.11724685995459333 -3.6197379052194814e-08 -1.0717733992884925e-08 -1.7441283317356384 98.64490686221122 26.476154614118816 174.93398962592806 -2.8040288936448896e-06 2.328348536638521e-06 50.832377710117925 -179.9999971853041 -2.139547313413046 -113.17990633275595 3.1805546814635168e-15 1.7655625192200634e-31 6.3611093629270335e-15 -100.5173080792549 5.69535632763335 -169.2503856427077 -5.867746140018035e-06 -1.2424499804899175e-07 -31.707016606987597 1.925906066615573e-06 -17.707058223313002 -24.068344616939708 -2.385416011097637e-15 6.3611093629270335e-15 -6.3611093629270335e-15 0.45210516530878453 -11.436066999178433 -16.144856471040384 2.7113854741526167 22.20923588179814 -22.805678326670964 79.40704128098133 -55.91396202250918 128.0147544585702 1.5902773407317584e-15 3.1805546814635168e-15 1.5902773407317584e-15 6.820841925202157 -2.3096277873866247 21.469238137093104 -0.09110416492047568 12.897867095910645 8.843354825012828 -85.52905593386244 -38.69262393583178 -132.03512032912084 -6.361109362927033e-15 0.0 0.0
-12.5 -0.10000000149011612 -7.500000476837158 -3.7517299602429164 -0.46861810419437117 82.49216076571872 3.2242014912750396 -2.0326617807320457 0.09951359279864049 -1.9213384781223767e-07 -1.7681521507680783e-07 -1.0615565460563066 98.30700166486676 22.62562217535698 175.10262700760745 1.0550135711650546e-06 1.477146571324336e-06 48.07430319695407 -179.99999991430272 2.150095312932921 -110.28661304300323 0.0 0.0 3.1805546814635168e-15 -100.37483468999405 6.0017577583200366 -169.46263896420038 -5.627527534257101e-07 -3.249172298853128e-07 -31.910541594665325 -2.5414566755128084e-06 -18.515476509832876 -22.998860012442687 7.951386703658792e-16 -6.3611093629270335e-15 4.4139062980501586e-32 0.47722638480637436 -11.56949779517886 -15.98069248918216 3.055628624958776 22.336322885326442 -23.20567857486094 79.30575072625031 -55.22918954564234 128.4432244342833 -1.590277340731758e-15 -4.4139062980501586e-32 3.180554681463516e-15 6.8412413694055525 -2.44317811216326 21.51374240080902 0.21403979207020282 12.963895369164526 8.873392119445803 -86.58770995954033 -38.844374843807856 -133.10268835139192 -6.3611093629270335e-15 4.770832022195275e-15 -3.1805546814635164e-15
-12.800000190734863 -0.20000000298023224 -7.199999809265137 -4.219094026458719 -0.4683540679979766 82.77024303470715 3.225091339474048 -2.191870639577863 0.11589839083150724 1.7766659607335495e-07 1.2282937077012817e-07 -0.8857145238362142 97.85508443345964 18.625680494779257 174.84430128211852 -5.592193757895383e-07 3.4881711518978804e-07 46.634910694227116 -179.9999999543965 3.822608819833266 -107.68370235476024 1.7655625192200634e-31 6.3611093629270335e-15 -3.1805546814635168e-15 -100.32481411044294 6.663171542460779 -169.69345895470425 2.3457647764959015e-07 1.8270388813010109e-06 -32.291772032706454 3.0641121588245127e-06 -16.874331306083604 -24.341753522922495 -6.3611093629270335e-15 0.0 0.0 0.4950645871158336 -12.188138547037893 -15.911193170752423 3.4647386183966833 22.39716605996452 -23.41974872031138 79.01612447190284 -55.52960166990753 128.20627847034896 -1.5902773407317584e-15 -3.1805546814635176e-15 7.951386703658793e-15 7.216678222872312 -3.1735383561459902 21.507762643698776 0.16382210360513624 13.239559127833644 8.893793659275698 -85.93980892011699 -38.59508026024104 -131.91501774423892 -6.361109362927035e-15 0.0 0.0
